grf
version=1
nRows=19
nColumns=37
inDegrees=no
endheader
time	ground_force_1_vx	ground_force_1_vy	ground_force_1_vz	ground_force_1_px	ground_force_1_py	ground_force_1_pz	ground_moment_1_mx	ground_moment_1_my	ground_moment_1_mz	ground_force_2_vx	ground_force_2_vy	ground_force_2_vz	ground_force_2_px	ground_force_2_py	ground_force_2_pz	ground_moment_2_mx	ground_moment_2_my	ground_moment_2_mz	ground_force_3_vx	ground_force_3_vy	ground_force_3_vz	ground_force_3_px	ground_force_3_py	ground_force_3_pz	ground_moment_3_mx	ground_moment_3_my	ground_moment_3_mz	ground_force_4_vx	ground_force_4_vy	ground_force_4_vz	ground_force_4_px	ground_force_4_py	ground_force_4_pz	ground_moment_4_mx	ground_moment_4_my	ground_moment_4_mz
      1.82000000	      0.00000000	     -0.00000000	      0.00000000	      0.00000000	      0.00000000	      0.00000000	      0.00000000	      0.00000000	      0.00000000	      0.94129658	     22.28260040	   -335.36251831	   -359.62944971	  -1095.82643776	      0.00000000	      0.00000000	      0.00000000	   4611.76380650	      3.07051936	    -22.82630566	   -328.53149414	   -364.28154566	   -740.25446336	      0.00000000	      0.00000000	     -0.00000000	  -3912.91691417	      0.00000000	     -0.00000000	      0.00000000	      0.00000000	      0.00000000	      0.00000000	      0.00000000	      0.00000000	      0.00000000
      1.83000000	      0.00000000	     -0.00000000	      0.00000000	      0.00000000	      0.00000000	      0.00000000	      0.00000000	      0.00000000	      0.00000000	      0.85185450	     22.51847839	   -337.31481934	   -359.37365952	  -1096.73132032	      0.00000000	      0.00000000	      0.00000000	   4410.97743573	      3.01616475	    -22.11999347	   -328.96090698	   -364.81487204	   -738.96463510	      0.00000000	      0.00000000	     -0.00000000	  -3864.56356116	      0.00000000	     -0.00000000	      0.00000000	      0.00000000	      0.00000000	      0.00000000	      0.00000000	      0.00000000	      0.00000000
      1.84000000	      0.00000000	     -0.00000000	      0.00000000	      0.00000000	      0.00000000	      0.00000000	      0.00000000	      0.00000000	      0.00000000	      1.50043809	     23.22257423	   -336.19479370	   -358.84055626	  -1096.01894053	      0.00000000	      0.00000000	      0.00000000	   4734.17849618	      3.17800284	    -21.75140409	   -333.53573608	   -364.37023016	   -739.03606741	      0.00000000	      0.00000000	     -0.00000000	  -3867.43507177	      0.00000000	     -0.00000000	      0.00000000	      0.00000000	      0.00000000	      0.00000000	      0.00000000	      0.00000000	      0.00000000
      1.85000000	      0.00000000	     -0.00000000	      0.00000000	      0.00000000	      0.00000000	      0.00000000	      0.00000000	      0.00000000	      0.00000000	      1.53304899	     23.29594612	   -337.89721680	   -358.64489060	  -1097.52674839	      0.00000000	      0.00000000	      0.00000000	   4729.26755501	      4.02460487	    -20.98056065	   -338.39053345	   -363.21026882	   -738.58316347	      0.00000000	      0.00000000	     -0.00000000	  -3884.29671988	      0.00000000	     -0.00000000	      0.00000000	      0.00000000	      0.00000000	      0.00000000	      0.00000000	      0.00000000	      0.00000000
      1.86000000	      0.00000000	     -0.00000000	      0.00000000	      0.00000000	      0.00000000	      0.00000000	      0.00000000	      0.00000000	      0.00000000	      1.46831667	     23.24111366	   -339.31039429	   -357.11369829	  -1096.13265116	      0.00000000	      0.00000000	      0.00000000	   4878.21813273	      4.85494000	    -21.06865162	   -338.70816040	   -364.07715093	   -740.47159522	      0.00000000	      0.00000000	     -0.00000000	  -3964.85351989	      0.00000000	     -0.00000000	      0.00000000	      0.00000000	      0.00000000	      0.00000000	      0.00000000	      0.00000000	      0.00000000
      1.87000000	      0.00000000	     -0.00000000	      0.00000000	      0.00000000	      0.00000000	      0.00000000	      0.00000000	      0.00000000	      0.00000000	      0.80289459	     23.65386200	   -341.75601196	   -357.77271836	  -1096.51791862	      0.00000000	      0.00000000	      0.00000000	   4886.31697182	      4.43553737	    -21.47870293	   -341.63024902	   -363.33291152	   -739.51690539	      0.00000000	      0.00000000	     -0.00000000	  -4040.98270917	      0.00000000	     -0.00000000	      0.00000000	      0.00000000	      0.00000000	      0.00000000	      0.00000000	      0.00000000	      0.00000000
      1.88000000	      0.00000000	     -0.00000000	      0.00000000	      0.00000000	      0.00000000	      0.00000000	      0.00000000	      0.00000000	      0.00000000	      0.78535098	     23.19777107	   -340.30145264	   -357.25484876	  -1095.45557034	      0.00000000	      0.00000000	      0.00000000	   4955.21458862	      3.80069785	    -21.24481616	   -341.91354370	   -362.17385437	   -739.52135241	      0.00000000	      0.00000000	     -0.00000000	  -4206.10880423	      0.00000000	     -0.00000000	      0.00000000	      0.00000000	      0.00000000	      0.00000000	      0.00000000	      0.00000000	      0.00000000
      1.89000000	      0.00000000	     -0.00000000	      0.00000000	      0.00000000	      0.00000000	      0.00000000	      0.00000000	      0.00000000	      0.00000000	      1.05872917	     22.52623558	   -342.20800781	   -356.71297097	  -1095.84919568	      0.00000000	      0.00000000	      0.00000000	   5117.58868409	      3.45971873	    -21.47940666	   -342.89245605	   -360.98677524	   -739.03050865	      0.00000000	      0.00000000	     -0.00000000	  -4290.28228796	      0.00000000	     -0.00000000	      0.00000000	      0.00000000	      0.00000000	      0.00000000	      0.00000000	      0.00000000	      0.00000000
      1.90000000	      0.00000000	     -0.00000000	      0.00000000	      0.00000000	      0.00000000	      0.00000000	      0.00000000	      0.00000000	      0.00000000	      1.33815765	     21.77145958	   -342.63516235	   -356.42215107	  -1096.20351684	      0.00000000	      0.00000000	      0.00000000	   5181.63584580	      3.08119018	    -21.00298336	   -342.96011353	   -360.59415926	   -738.31882676	      0.00000000	      0.00000000	     -0.00000000	  -4305.88092266	      0.00000000	     -0.00000000	      0.00000000	      0.00000000	      0.00000000	      0.00000000	      0.00000000	      0.00000000	      0.00000000
      1.91000000	      0.00000000	     -0.00000000	      0.00000000	      0.00000000	      0.00000000	      0.00000000	      0.00000000	      0.00000000	      0.00000000	      2.36158895	     21.14245605	   -341.63793945	   -356.06966096	  -1096.55471151	      0.00000000	      0.00000000	      0.00000000	   5184.41119968	      2.99816739	    -20.56103351	   -342.35412598	   -359.07300657	   -738.26786668	      0.00000000	      0.00000000	     -0.00000000	  -4354.06219857	      0.00000000	     -0.00000000	      0.00000000	      0.00000000	      0.00000000	      0.00000000	      0.00000000	      0.00000000	      0.00000000
      1.92000000	      0.00000000	     -0.00000000	      0.00000000	      0.00000000	      0.00000000	      0.00000000	      0.00000000	      0.00000000	      0.00000000	      2.61052728	     20.03093910	   -339.66638184	   -355.88298203	  -1096.80641405	      0.00000000	      0.00000000	      0.00000000	   5088.99597583	      2.59605801	    -20.42565368	   -341.98400879	   -357.67131867	   -737.50101101	      0.00000000	      0.00000000	     -0.00000000	  -4477.09515111	      0.00000000	     -0.00000000	      0.00000000	      0.00000000	      0.00000000	      0.00000000	      0.00000000	      0.00000000	      0.00000000
      1.93000000	      0.00000000	     -0.00000000	      0.00000000	      0.00000000	      0.00000000	      0.00000000	      0.00000000	      0.00000000	      0.00000000	      2.14509296	     18.99999428	   -337.64001465	   -354.59836794	  -1095.80813696	      0.00000000	      0.00000000	      0.00000000	   5233.27235651	      2.09166206	    -20.38369388	   -342.95874023	   -357.12377673	   -738.91781223	      0.00000000	      0.00000000	     -0.00000000	  -4509.29745229	      0.00000000	     -0.00000000	      0.00000000	      0.00000000	      0.00000000	      0.00000000	      0.00000000	      0.00000000	      0.00000000
      1.94000000	      0.00000000	     -0.00000000	      0.00000000	      0.00000000	      0.00000000	      0.00000000	      0.00000000	      0.00000000	      0.00000000	      1.20255125	     18.18618011	   -337.71771240	   -353.09749588	  -1096.62291144	      0.00000000	      0.00000000	      0.00000000	   5028.93834872	      2.12905705	    -20.47167415	   -345.47729492	   -356.69134683	   -737.90608059	      0.00000000	      0.00000000	     -0.00000000	  -4711.16293518	      0.00000000	     -0.00000000	      0.00000000	      0.00000000	      0.00000000	      0.00000000	      0.00000000	      0.00000000	      0.00000000
      1.95000000	      0.00000000	     -0.00000000	      0.00000000	      0.00000000	      0.00000000	      0.00000000	      0.00000000	      0.00000000	      0.00000000	      0.86902303	     18.22560883	   -337.98086548	   -351.94570489	  -1096.35427415	      0.00000000	      0.00000000	      0.00000000	   5205.89788947	      2.66876711	    -20.24867272	   -346.46401978	   -356.10788168	   -737.62347636	      0.00000000	     -0.00000000	     -0.00000000	  -4688.89258059	      0.00000000	     -0.00000000	      0.00000000	      0.00000000	      0.00000000	      0.00000000	      0.00000000	      0.00000000	      0.00000000
      1.96000000	      0.00000000	     -0.00000000	      0.00000000	      0.00000000	      0.00000000	      0.00000000	      0.00000000	      0.00000000	      0.00000000	     -0.64743102	     18.00434113	   -337.99322510	   -351.32978949	  -1094.99276520	      0.00000000	      0.00000000	      0.00000000	   5466.91055094	      2.48390016	    -20.79815123	   -348.44064331	   -355.15646136	   -736.89615144	      0.00000000	      0.00000000	     -0.00000000	  -4896.70790321	      0.00000000	     -0.00000000	      0.00000000	      0.00000000	      0.00000000	      0.00000000	      0.00000000	      0.00000000	      0.00000000
      1.97000000	      0.00000000	     -0.00000000	      0.00000000	      0.00000000	      0.00000000	      0.00000000	      0.00000000	      0.00000000	      0.00000000	     -1.62645674	     17.58369446	   -339.84094238	   -350.13572454	  -1096.45702353	      0.00000000	      0.00000000	      0.00000000	   5424.81226332	      1.15044817	    -20.84391795	   -351.50567627	   -353.68172946	   -736.04200661	      0.00000000	      0.00000000	     -0.00000000	  -4914.60049273	      0.00000000	     -0.00000000	      0.00000000	      0.00000000	      0.00000000	      0.00000000	      0.00000000	      0.00000000	      0.00000000
      1.98000000	      0.00000000	     -0.00000000	      0.00000000	      0.00000000	      0.00000000	      0.00000000	      0.00000000	      0.00000000	      0.00000000	     -2.21096611	     17.47127533	   -341.08181763	   -349.39723881	  -1096.46835187	      0.00000000	      0.00000000	      0.00000000	   5672.00189229	      0.15698979	    -21.61847307	   -353.42187500	   -353.99628379	   -737.26868532	      0.00000000	      0.00000000	     -0.00000000	  -5030.01360065	      0.00000000	     -0.00000000	      0.00000000	      0.00000000	      0.00000000	      0.00000000	      0.00000000	      0.00000000	      0.00000000
      1.99000000	      0.00000000	     -0.00000000	      0.00000000	      0.00000000	      0.00000000	      0.00000000	      0.00000000	      0.00000000	      0.00000000	     -3.03315735	     17.40428162	   -337.81414795	   -349.38106114	  -1094.06533758	      0.00000000	      0.00000000	      0.00000000	   5679.76072500	      0.13025391	    -22.03346254	   -355.96377563	   -352.91440239	   -735.89155521	      0.00000000	      0.00000000	     -0.00000000	  -5095.24562357	      0.00000000	     -0.00000000	      0.00000000	      0.00000000	      0.00000000	      0.00000000	      0.00000000	      0.00000000	      0.00000000
      2.00000000	      0.00000000	     -0.00000000	      0.00000000	      0.00000000	      0.00000000	      0.00000000	      0.00000000	      0.00000000	      0.00000000	     -3.21233749	     17.33548355	   -338.78262329	   -349.13368493	  -1095.16589731	      0.00000000	      0.00000000	      0.00000000	   5659.21683939	     -1.08567598	    -22.10284414	   -359.27703857	   -352.04964780	   -734.74874507	      0.00000000	      0.00000000	     -0.00000000	  -5112.69832937	      0.00000000	     -0.00000000	      0.00000000	      0.00000000	      0.00000000	      0.00000000	      0.00000000	      0.00000000	      0.00000000
